<svg preserveAspectRatio="none" overflow="visible" style="display: block;" width="24" height="24" viewBox="0 0 24 24" fill="none" xmlns="http://www.w3.org/2000/svg">
<g id="Image" fill="#1B4F39">
<rect x="10.6" y="0.6" width="2.8" height="5.2" rx="1.2" transform="rotate(0 12 12)"/>
<rect x="10.6" y="0.6" width="2.8" height="5.2" rx="1.2" transform="rotate(45 12 12)"/>
<rect x="10.6" y="0.6" width="2.8" height="5.2" rx="1.2" transform="rotate(90 12 12)"/>
<rect x="10.6" y="0.6" width="2.8" height="5.2" rx="1.2" transform="rotate(135 12 12)"/>
<rect x="10.6" y="0.6" width="2.8" height="5.2" rx="1.2" transform="rotate(180 12 12)"/>
<rect x="10.6" y="0.6" width="2.8" height="5.2" rx="1.2" transform="rotate(225 12 12)"/>
<rect x="10.6" y="0.6" width="2.8" height="5.2" rx="1.2" transform="rotate(270 12 12)"/>
<rect x="10.6" y="0.6" width="2.8" height="5.2" rx="1.2" transform="rotate(315 12 12)"/>
<circle cx="12" cy="12" r="6.4"/>
</g>
<circle cx="12" cy="12" r="2.7" fill="#fff"/>
</svg>
